<?xml version="1.0" encoding="UTF-8" standalone="no"?>
<!DOCTYPE svg PUBLIC "-//W3C//DTD SVG 1.1//EN"
 "http://www.w3.org/Graphics/SVG/1.1/DTD/svg11.dtd">
<!-- Generated by graphviz version 2.26.3 (20100126.1600)
 -->
<!-- Title: snakemake_dag Pages: 1 -->
<svg width="1667pt" height="356pt"
 viewBox="0.00 0.00 1667.00 356.00" xmlns="http://www.w3.org/2000/svg" xmlns:xlink="http://www.w3.org/1999/xlink">
<g id="graph1" class="graph" transform="scale(1 1) rotate(0) translate(4 352)">
<title>snakemake_dag</title>
<polygon fill="white" stroke="white" points="-4,5 -4,-352 1664,-352 1664,5 -4,5"/>
<!-- 0 -->
<g id="node1" class="node"><title>0</title>
<polyline fill="none" stroke="#d85656" stroke-width="2" points="1060,-36 1030,-36 "/>
<path fill="none" stroke="#d85656" stroke-width="2" d="M1030,-36C1024,-36 1018,-30 1018,-24"/>
<polyline fill="none" stroke="#d85656" stroke-width="2" points="1018,-24 1018,-12 "/>
<path fill="none" stroke="#d85656" stroke-width="2" d="M1018,-12C1018,-6 1024,-1.61846e-14 1030,-1.46056e-14"/>
<polyline fill="none" stroke="#d85656" stroke-width="2" points="1030,-1.46056e-14 1060,-6.71068e-15 "/>
<path fill="none" stroke="#d85656" stroke-width="2" d="M1060,-6.71068e-15C1066,-5.1317e-15 1072,-6 1072,-12"/>
<polyline fill="none" stroke="#d85656" stroke-width="2" points="1072,-12 1072,-24 "/>
<path fill="none" stroke="#d85656" stroke-width="2" d="M1072,-24C1072,-30 1066,-36 1060,-36"/>
<text text-anchor="middle" x="1045" y="-15.5" font-family="sans" font-size="10.00">all</text>
</g>
<!-- 1 -->
<g id="node2" class="node"><title>1</title>
<polyline fill="none" stroke="#afd856" stroke-width="2" points="579,-114 471,-114 "/>
<path fill="none" stroke="#afd856" stroke-width="2" d="M471,-114C465,-114 459,-108 459,-102"/>
<polyline fill="none" stroke="#afd856" stroke-width="2" points="459,-102 459,-90 "/>
<path fill="none" stroke="#afd856" stroke-width="2" d="M459,-90C459,-84 465,-78 471,-78"/>
<polyline fill="none" stroke="#afd856" stroke-width="2" points="471,-78 579,-78 "/>
<path fill="none" stroke="#afd856" stroke-width="2" d="M579,-78C585,-78 591,-84 591,-90"/>
<polyline fill="none" stroke="#afd856" stroke-width="2" points="591,-90 591,-102 "/>
<path fill="none" stroke="#afd856" stroke-width="2" d="M591,-102C591,-108 585,-114 579,-114"/>
<text text-anchor="middle" x="525" y="-93.5" font-family="sans" font-size="10.00">sum_transcript_to_gene</text>
</g>
<!-- 1&#45;&gt;0 -->
<g id="edge2" class="edge"><title>1&#45;&gt;0</title>
<path fill="none" stroke="grey" stroke-width="2" d="M577.109,-77.9368C584.725,-75.7033 592.521,-73.6351 600,-72 749.038,-39.4179 930.757,-25.0713 1007.72,-20.1377"/>
<polygon fill="grey" stroke="grey" points="1008.1,-23.6204 1017.87,-19.5031 1007.67,-16.634 1008.1,-23.6204"/>
</g>
<!-- 2 -->
<g id="node3" class="node"><title>2</title>
<polyline fill="none" stroke="#d8ac56" stroke-width="2" points="540,-192 510,-192 "/>
<path fill="none" stroke="#d8ac56" stroke-width="2" d="M510,-192C504,-192 498,-186 498,-180"/>
<polyline fill="none" stroke="#d8ac56" stroke-width="2" points="498,-180 498,-168 "/>
<path fill="none" stroke="#d8ac56" stroke-width="2" d="M498,-168C498,-162 504,-156 510,-156"/>
<polyline fill="none" stroke="#d8ac56" stroke-width="2" points="510,-156 540,-156 "/>
<path fill="none" stroke="#d8ac56" stroke-width="2" d="M540,-156C546,-156 552,-162 552,-168"/>
<polyline fill="none" stroke="#d8ac56" stroke-width="2" points="552,-168 552,-180 "/>
<path fill="none" stroke="#d8ac56" stroke-width="2" d="M552,-180C552,-186 546,-192 540,-192"/>
<text text-anchor="middle" x="525" y="-171.5" font-family="sans" font-size="10.00">merge</text>
</g>
<!-- 2&#45;&gt;1 -->
<g id="edge16" class="edge"><title>2&#45;&gt;1</title>
<path fill="none" stroke="grey" stroke-width="2" d="M525,-155.909C525,-146.526 525,-134.85 525,-124.305"/>
<polygon fill="grey" stroke="grey" points="528.5,-124.263 525,-114.263 521.5,-124.263 528.5,-124.263"/>
</g>
<!-- 3 -->
<g id="node4" class="node"><title>3</title>
<polyline fill="none" stroke="#56a9d8" stroke-width="2" points="148,-275.5 12,-275.5 "/>
<path fill="none" stroke="#56a9d8" stroke-width="2" d="M12,-275.5C6,-275.5 7.43802e-14,-269.5 6.34953e-14,-263.5"/>
<polyline fill="none" stroke="#56a9d8" stroke-width="2" points="6.34953e-14,-263.5 2.17698e-14,-240.5 "/>
<path fill="none" stroke="#56a9d8" stroke-width="2" d="M2.17698e-14,-240.5C1.08849e-14,-234.5 6,-228.5 12,-228.5"/>
<polyline fill="none" stroke="#56a9d8" stroke-width="2" points="12,-228.5 148,-228.5 "/>
<path fill="none" stroke="#56a9d8" stroke-width="2" d="M148,-228.5C154,-228.5 160,-234.5 160,-240.5"/>
<polyline fill="none" stroke="#56a9d8" stroke-width="2" points="160,-240.5 160,-263.5 "/>
<path fill="none" stroke="#56a9d8" stroke-width="2" d="M160,-263.5C160,-269.5 154,-275.5 148,-275.5"/>
<text text-anchor="middle" x="80" y="-262.5" font-family="sans" font-size="10.00">quantify_reads</text>
<text text-anchor="middle" x="80" y="-249.5" font-family="sans" font-size="10.00">experiment: John2014_Sviridis</text>
<text text-anchor="middle" x="80" y="-236.5" font-family="sans" font-size="10.00">reads: M_ERR385861</text>
</g>
<!-- 3&#45;&gt;2 -->
<g id="edge18" class="edge"><title>3&#45;&gt;2</title>
<path fill="none" stroke="grey" stroke-width="2" d="M160.432,-229.874C163.318,-229.219 166.181,-228.592 169,-228 284.035,-203.846 422.142,-186.041 487.368,-178.29"/>
<polygon fill="grey" stroke="grey" points="488.045,-181.735 497.568,-177.09 487.227,-174.783 488.045,-181.735"/>
</g>
<!-- 4 -->
<g id="node5" class="node"><title>4</title>
<polyline fill="none" stroke="#56d8a9" stroke-width="2" points="599,-348 451,-348 "/>
<path fill="none" stroke="#56d8a9" stroke-width="2" d="M451,-348C445,-348 439,-342 439,-336"/>
<polyline fill="none" stroke="#56d8a9" stroke-width="2" points="439,-336 439,-324 "/>
<path fill="none" stroke="#56d8a9" stroke-width="2" d="M439,-324C439,-318 445,-312 451,-312"/>
<polyline fill="none" stroke="#56d8a9" stroke-width="2" points="451,-312 599,-312 "/>
<path fill="none" stroke="#56d8a9" stroke-width="2" d="M599,-312C605,-312 611,-318 611,-324"/>
<polyline fill="none" stroke="#56d8a9" stroke-width="2" points="611,-324 611,-336 "/>
<path fill="none" stroke="#56d8a9" stroke-width="2" d="M611,-336C611,-342 605,-348 599,-348"/>
<text text-anchor="middle" x="525" y="-334" font-family="sans" font-size="10.00">index_transcriptome</text>
<text text-anchor="middle" x="525" y="-321" font-family="sans" font-size="10.00">transcriptome: Sviridis_500_v2.1</text>
</g>
<!-- 4&#45;&gt;3 -->
<g id="edge30" class="edge"><title>4&#45;&gt;3</title>
<path fill="none" stroke="grey" stroke-width="2" d="M438.913,-319.71C368.913,-310.704 267.467,-296.207 170.414,-276.206"/>
<polygon fill="grey" stroke="grey" points="170.936,-272.74 160.432,-274.126 169.508,-279.592 170.936,-272.74"/>
</g>
<!-- 5 -->
<g id="node6" class="node"><title>5</title>
<polyline fill="none" stroke="#56a9d8" stroke-width="2" points="326,-275.5 190,-275.5 "/>
<path fill="none" stroke="#56a9d8" stroke-width="2" d="M190,-275.5C184,-275.5 178,-269.5 178,-263.5"/>
<polyline fill="none" stroke="#56a9d8" stroke-width="2" points="178,-263.5 178,-240.5 "/>
<path fill="none" stroke="#56a9d8" stroke-width="2" d="M178,-240.5C178,-234.5 184,-228.5 190,-228.5"/>
<polyline fill="none" stroke="#56a9d8" stroke-width="2" points="190,-228.5 326,-228.5 "/>
<path fill="none" stroke="#56a9d8" stroke-width="2" d="M326,-228.5C332,-228.5 338,-234.5 338,-240.5"/>
<polyline fill="none" stroke="#56a9d8" stroke-width="2" points="338,-240.5 338,-263.5 "/>
<path fill="none" stroke="#56a9d8" stroke-width="2" d="M338,-263.5C338,-269.5 332,-275.5 326,-275.5"/>
<text text-anchor="middle" x="258" y="-262.5" font-family="sans" font-size="10.00">quantify_reads</text>
<text text-anchor="middle" x="258" y="-249.5" font-family="sans" font-size="10.00">experiment: John2014_Sviridis</text>
<text text-anchor="middle" x="258" y="-236.5" font-family="sans" font-size="10.00">reads: M_ERR385862</text>
</g>
<!-- 4&#45;&gt;5 -->
<g id="edge32" class="edge"><title>4&#45;&gt;5</title>
<path fill="none" stroke="grey" stroke-width="2" d="M463.074,-311.909C428.993,-301.953 386.076,-289.416 348.323,-278.386"/>
<polygon fill="grey" stroke="grey" points="348.915,-274.913 338.335,-275.469 346.952,-281.632 348.915,-274.913"/>
</g>
<!-- 6 -->
<g id="node7" class="node"><title>6</title>
<polyline fill="none" stroke="#56a9d8" stroke-width="2" points="504,-275.5 368,-275.5 "/>
<path fill="none" stroke="#56a9d8" stroke-width="2" d="M368,-275.5C362,-275.5 356,-269.5 356,-263.5"/>
<polyline fill="none" stroke="#56a9d8" stroke-width="2" points="356,-263.5 356,-240.5 "/>
<path fill="none" stroke="#56a9d8" stroke-width="2" d="M356,-240.5C356,-234.5 362,-228.5 368,-228.5"/>
<polyline fill="none" stroke="#56a9d8" stroke-width="2" points="368,-228.5 504,-228.5 "/>
<path fill="none" stroke="#56a9d8" stroke-width="2" d="M504,-228.5C510,-228.5 516,-234.5 516,-240.5"/>
<polyline fill="none" stroke="#56a9d8" stroke-width="2" points="516,-240.5 516,-263.5 "/>
<path fill="none" stroke="#56a9d8" stroke-width="2" d="M516,-263.5C516,-269.5 510,-275.5 504,-275.5"/>
<text text-anchor="middle" x="436" y="-262.5" font-family="sans" font-size="10.00">quantify_reads</text>
<text text-anchor="middle" x="436" y="-249.5" font-family="sans" font-size="10.00">experiment: John2014_Sviridis</text>
<text text-anchor="middle" x="436" y="-236.5" font-family="sans" font-size="10.00">reads: M_ERR385863</text>
</g>
<!-- 4&#45;&gt;6 -->
<g id="edge34" class="edge"><title>4&#45;&gt;6</title>
<path fill="none" stroke="grey" stroke-width="2" d="M504.358,-311.909C494.345,-303.133 482.043,-292.352 470.649,-282.366"/>
<polygon fill="grey" stroke="grey" points="472.772,-279.573 462.944,-275.614 468.158,-284.837 472.772,-279.573"/>
</g>
<!-- 7 -->
<g id="node8" class="node"><title>7</title>
<polyline fill="none" stroke="#56a9d8" stroke-width="2" points="682,-275.5 546,-275.5 "/>
<path fill="none" stroke="#56a9d8" stroke-width="2" d="M546,-275.5C540,-275.5 534,-269.5 534,-263.5"/>
<polyline fill="none" stroke="#56a9d8" stroke-width="2" points="534,-263.5 534,-240.5 "/>
<path fill="none" stroke="#56a9d8" stroke-width="2" d="M534,-240.5C534,-234.5 540,-228.5 546,-228.5"/>
<polyline fill="none" stroke="#56a9d8" stroke-width="2" points="546,-228.5 682,-228.5 "/>
<path fill="none" stroke="#56a9d8" stroke-width="2" d="M682,-228.5C688,-228.5 694,-234.5 694,-240.5"/>
<polyline fill="none" stroke="#56a9d8" stroke-width="2" points="694,-240.5 694,-263.5 "/>
<path fill="none" stroke="#56a9d8" stroke-width="2" d="M694,-263.5C694,-269.5 688,-275.5 682,-275.5"/>
<text text-anchor="middle" x="614" y="-262.5" font-family="sans" font-size="10.00">quantify_reads</text>
<text text-anchor="middle" x="614" y="-249.5" font-family="sans" font-size="10.00">experiment: John2014_Sviridis</text>
<text text-anchor="middle" x="614" y="-236.5" font-family="sans" font-size="10.00">reads: BS_ERR385864</text>
</g>
<!-- 4&#45;&gt;7 -->
<g id="edge36" class="edge"><title>4&#45;&gt;7</title>
<path fill="none" stroke="grey" stroke-width="2" d="M545.642,-311.909C555.655,-303.133 567.957,-292.352 579.351,-282.366"/>
<polygon fill="grey" stroke="grey" points="581.842,-284.837 587.056,-275.614 577.228,-279.573 581.842,-284.837"/>
</g>
<!-- 8 -->
<g id="node9" class="node"><title>8</title>
<polyline fill="none" stroke="#56a9d8" stroke-width="2" points="860,-275.5 724,-275.5 "/>
<path fill="none" stroke="#56a9d8" stroke-width="2" d="M724,-275.5C718,-275.5 712,-269.5 712,-263.5"/>
<polyline fill="none" stroke="#56a9d8" stroke-width="2" points="712,-263.5 712,-240.5 "/>
<path fill="none" stroke="#56a9d8" stroke-width="2" d="M712,-240.5C712,-234.5 718,-228.5 724,-228.5"/>
<polyline fill="none" stroke="#56a9d8" stroke-width="2" points="724,-228.5 860,-228.5 "/>
<path fill="none" stroke="#56a9d8" stroke-width="2" d="M860,-228.5C866,-228.5 872,-234.5 872,-240.5"/>
<polyline fill="none" stroke="#56a9d8" stroke-width="2" points="872,-240.5 872,-263.5 "/>
<path fill="none" stroke="#56a9d8" stroke-width="2" d="M872,-263.5C872,-269.5 866,-275.5 860,-275.5"/>
<text text-anchor="middle" x="792" y="-262.5" font-family="sans" font-size="10.00">quantify_reads</text>
<text text-anchor="middle" x="792" y="-249.5" font-family="sans" font-size="10.00">experiment: John2014_Sviridis</text>
<text text-anchor="middle" x="792" y="-236.5" font-family="sans" font-size="10.00">reads: BS_ERR385865</text>
</g>
<!-- 4&#45;&gt;8 -->
<g id="edge38" class="edge"><title>4&#45;&gt;8</title>
<path fill="none" stroke="grey" stroke-width="2" d="M586.926,-311.909C621.007,-301.953 663.924,-289.416 701.677,-278.386"/>
<polygon fill="grey" stroke="grey" points="703.048,-281.632 711.665,-275.469 701.085,-274.913 703.048,-281.632"/>
</g>
<!-- 9 -->
<g id="node10" class="node"><title>9</title>
<polyline fill="none" stroke="#56a9d8" stroke-width="2" points="1038,-275.5 902,-275.5 "/>
<path fill="none" stroke="#56a9d8" stroke-width="2" d="M902,-275.5C896,-275.5 890,-269.5 890,-263.5"/>
<polyline fill="none" stroke="#56a9d8" stroke-width="2" points="890,-263.5 890,-240.5 "/>
<path fill="none" stroke="#56a9d8" stroke-width="2" d="M890,-240.5C890,-234.5 896,-228.5 902,-228.5"/>
<polyline fill="none" stroke="#56a9d8" stroke-width="2" points="902,-228.5 1038,-228.5 "/>
<path fill="none" stroke="#56a9d8" stroke-width="2" d="M1038,-228.5C1044,-228.5 1050,-234.5 1050,-240.5"/>
<polyline fill="none" stroke="#56a9d8" stroke-width="2" points="1050,-240.5 1050,-263.5 "/>
<path fill="none" stroke="#56a9d8" stroke-width="2" d="M1050,-263.5C1050,-269.5 1044,-275.5 1038,-275.5"/>
<text text-anchor="middle" x="970" y="-262.5" font-family="sans" font-size="10.00">quantify_reads</text>
<text text-anchor="middle" x="970" y="-249.5" font-family="sans" font-size="10.00">experiment: John2014_Sviridis</text>
<text text-anchor="middle" x="970" y="-236.5" font-family="sans" font-size="10.00">reads: BS_ERR385866</text>
</g>
<!-- 4&#45;&gt;9 -->
<g id="edge40" class="edge"><title>4&#45;&gt;9</title>
<path fill="none" stroke="grey" stroke-width="2" d="M611.087,-319.71C681.087,-310.704 782.533,-296.207 879.586,-276.206"/>
<polygon fill="grey" stroke="grey" points="880.492,-279.592 889.568,-274.126 879.064,-272.74 880.492,-279.592"/>
</g>
<!-- 5&#45;&gt;2 -->
<g id="edge20" class="edge"><title>5&#45;&gt;2</title>
<path fill="none" stroke="grey" stroke-width="2" d="M338.109,-228.597C387.884,-214.056 449.515,-196.052 488.057,-184.792"/>
<polygon fill="grey" stroke="grey" points="489.194,-188.107 497.811,-181.943 487.231,-181.387 489.194,-188.107"/>
</g>
<!-- 6&#45;&gt;2 -->
<g id="edge22" class="edge"><title>6&#45;&gt;2</title>
<path fill="none" stroke="grey" stroke-width="2" d="M463.187,-228.174C473.696,-218.963 485.733,-208.414 496.375,-199.087"/>
<polygon fill="grey" stroke="grey" points="498.979,-201.458 504.193,-192.235 494.366,-196.194 498.979,-201.458"/>
</g>
<!-- 7&#45;&gt;2 -->
<g id="edge24" class="edge"><title>7&#45;&gt;2</title>
<path fill="none" stroke="grey" stroke-width="2" d="M586.813,-228.174C576.304,-218.963 564.267,-208.414 553.625,-199.087"/>
<polygon fill="grey" stroke="grey" points="555.634,-196.194 545.807,-192.235 551.021,-201.458 555.634,-196.194"/>
</g>
<!-- 8&#45;&gt;2 -->
<g id="edge26" class="edge"><title>8&#45;&gt;2</title>
<path fill="none" stroke="grey" stroke-width="2" d="M711.891,-228.597C662.116,-214.056 600.485,-196.052 561.943,-184.792"/>
<polygon fill="grey" stroke="grey" points="562.769,-181.387 552.189,-181.943 560.806,-188.107 562.769,-181.387"/>
</g>
<!-- 9&#45;&gt;2 -->
<g id="edge28" class="edge"><title>9&#45;&gt;2</title>
<path fill="none" stroke="grey" stroke-width="2" d="M889.568,-229.874C886.682,-229.219 883.819,-228.592 881,-228 765.965,-203.846 627.858,-186.041 562.632,-178.29"/>
<polygon fill="grey" stroke="grey" points="562.773,-174.783 552.432,-177.09 561.955,-181.735 562.773,-174.783"/>
</g>
<!-- 10 -->
<g id="node11" class="node"><title>10</title>
<polyline fill="none" stroke="#59d856" stroke-width="2" points="757,-119.5 621,-119.5 "/>
<path fill="none" stroke="#59d856" stroke-width="2" d="M621,-119.5C615,-119.5 609,-113.5 609,-107.5"/>
<polyline fill="none" stroke="#59d856" stroke-width="2" points="609,-107.5 609,-84.5 "/>
<path fill="none" stroke="#59d856" stroke-width="2" d="M609,-84.5C609,-78.5 615,-72.5 621,-72.5"/>
<polyline fill="none" stroke="#59d856" stroke-width="2" points="621,-72.5 757,-72.5 "/>
<path fill="none" stroke="#59d856" stroke-width="2" d="M757,-72.5C763,-72.5 769,-78.5 769,-84.5"/>
<polyline fill="none" stroke="#59d856" stroke-width="2" points="769,-84.5 769,-107.5 "/>
<path fill="none" stroke="#59d856" stroke-width="2" d="M769,-107.5C769,-113.5 763,-119.5 757,-119.5"/>
<text text-anchor="middle" x="689" y="-106.5" font-family="sans" font-size="10.00">read_quality_report</text>
<text text-anchor="middle" x="689" y="-93.5" font-family="sans" font-size="10.00">experiment: John2014_Sviridis</text>
<text text-anchor="middle" x="689" y="-80.5" font-family="sans" font-size="10.00">reads: M_ERR385861</text>
</g>
<!-- 10&#45;&gt;0 -->
<g id="edge4" class="edge"><title>10&#45;&gt;0</title>
<path fill="none" stroke="grey" stroke-width="2" d="M769.472,-74.0528C772.347,-73.3474 775.196,-72.6609 778,-72 859.607,-52.7651 956.235,-34.2736 1007.94,-24.7207"/>
<polygon fill="grey" stroke="grey" points="1008.77,-28.1277 1017.97,-22.8763 1007.5,-21.2432 1008.77,-28.1277"/>
</g>
<!-- 11 -->
<g id="node12" class="node"><title>11</title>
<polyline fill="none" stroke="#59d856" stroke-width="2" points="935,-119.5 799,-119.5 "/>
<path fill="none" stroke="#59d856" stroke-width="2" d="M799,-119.5C793,-119.5 787,-113.5 787,-107.5"/>
<polyline fill="none" stroke="#59d856" stroke-width="2" points="787,-107.5 787,-84.5 "/>
<path fill="none" stroke="#59d856" stroke-width="2" d="M787,-84.5C787,-78.5 793,-72.5 799,-72.5"/>
<polyline fill="none" stroke="#59d856" stroke-width="2" points="799,-72.5 935,-72.5 "/>
<path fill="none" stroke="#59d856" stroke-width="2" d="M935,-72.5C941,-72.5 947,-78.5 947,-84.5"/>
<polyline fill="none" stroke="#59d856" stroke-width="2" points="947,-84.5 947,-107.5 "/>
<path fill="none" stroke="#59d856" stroke-width="2" d="M947,-107.5C947,-113.5 941,-119.5 935,-119.5"/>
<text text-anchor="middle" x="867" y="-106.5" font-family="sans" font-size="10.00">read_quality_report</text>
<text text-anchor="middle" x="867" y="-93.5" font-family="sans" font-size="10.00">experiment: John2014_Sviridis</text>
<text text-anchor="middle" x="867" y="-80.5" font-family="sans" font-size="10.00">reads: M_ERR385862</text>
</g>
<!-- 11&#45;&gt;0 -->
<g id="edge6" class="edge"><title>11&#45;&gt;0</title>
<path fill="none" stroke="grey" stroke-width="2" d="M920.889,-72.3858C949.198,-59.9808 983.15,-45.1027 1008.38,-34.0459"/>
<polygon fill="grey" stroke="grey" points="1009.84,-37.2279 1017.6,-30.0086 1007.03,-30.8165 1009.84,-37.2279"/>
</g>
<!-- 12 -->
<g id="node13" class="node"><title>12</title>
<polyline fill="none" stroke="#59d856" stroke-width="2" points="1113,-119.5 977,-119.5 "/>
<path fill="none" stroke="#59d856" stroke-width="2" d="M977,-119.5C971,-119.5 965,-113.5 965,-107.5"/>
<polyline fill="none" stroke="#59d856" stroke-width="2" points="965,-107.5 965,-84.5 "/>
<path fill="none" stroke="#59d856" stroke-width="2" d="M965,-84.5C965,-78.5 971,-72.5 977,-72.5"/>
<polyline fill="none" stroke="#59d856" stroke-width="2" points="977,-72.5 1113,-72.5 "/>
<path fill="none" stroke="#59d856" stroke-width="2" d="M1113,-72.5C1119,-72.5 1125,-78.5 1125,-84.5"/>
<polyline fill="none" stroke="#59d856" stroke-width="2" points="1125,-84.5 1125,-107.5 "/>
<path fill="none" stroke="#59d856" stroke-width="2" d="M1125,-107.5C1125,-113.5 1119,-119.5 1113,-119.5"/>
<text text-anchor="middle" x="1045" y="-106.5" font-family="sans" font-size="10.00">read_quality_report</text>
<text text-anchor="middle" x="1045" y="-93.5" font-family="sans" font-size="10.00">experiment: John2014_Sviridis</text>
<text text-anchor="middle" x="1045" y="-80.5" font-family="sans" font-size="10.00">reads: M_ERR385863</text>
</g>
<!-- 12&#45;&gt;0 -->
<g id="edge8" class="edge"><title>12&#45;&gt;0</title>
<path fill="none" stroke="grey" stroke-width="2" d="M1045,-72.1736C1045,-64.1093 1045,-55.0196 1045,-46.6221"/>
<polygon fill="grey" stroke="grey" points="1048.5,-46.4849 1045,-36.4849 1041.5,-46.4849 1048.5,-46.4849"/>
</g>
<!-- 13 -->
<g id="node14" class="node"><title>13</title>
<polyline fill="none" stroke="#59d856" stroke-width="2" points="1291,-119.5 1155,-119.5 "/>
<path fill="none" stroke="#59d856" stroke-width="2" d="M1155,-119.5C1149,-119.5 1143,-113.5 1143,-107.5"/>
<polyline fill="none" stroke="#59d856" stroke-width="2" points="1143,-107.5 1143,-84.5 "/>
<path fill="none" stroke="#59d856" stroke-width="2" d="M1143,-84.5C1143,-78.5 1149,-72.5 1155,-72.5"/>
<polyline fill="none" stroke="#59d856" stroke-width="2" points="1155,-72.5 1291,-72.5 "/>
<path fill="none" stroke="#59d856" stroke-width="2" d="M1291,-72.5C1297,-72.5 1303,-78.5 1303,-84.5"/>
<polyline fill="none" stroke="#59d856" stroke-width="2" points="1303,-84.5 1303,-107.5 "/>
<path fill="none" stroke="#59d856" stroke-width="2" d="M1303,-107.5C1303,-113.5 1297,-119.5 1291,-119.5"/>
<text text-anchor="middle" x="1223" y="-106.5" font-family="sans" font-size="10.00">read_quality_report</text>
<text text-anchor="middle" x="1223" y="-93.5" font-family="sans" font-size="10.00">experiment: John2014_Sviridis</text>
<text text-anchor="middle" x="1223" y="-80.5" font-family="sans" font-size="10.00">reads: BS_ERR385864</text>
</g>
<!-- 13&#45;&gt;0 -->
<g id="edge10" class="edge"><title>13&#45;&gt;0</title>
<path fill="none" stroke="grey" stroke-width="2" d="M1169.11,-72.3858C1140.8,-59.9808 1106.85,-45.1027 1081.62,-34.0459"/>
<polygon fill="grey" stroke="grey" points="1082.97,-30.8165 1072.4,-30.0086 1080.16,-37.2279 1082.97,-30.8165"/>
</g>
<!-- 14 -->
<g id="node15" class="node"><title>14</title>
<polyline fill="none" stroke="#59d856" stroke-width="2" points="1469,-119.5 1333,-119.5 "/>
<path fill="none" stroke="#59d856" stroke-width="2" d="M1333,-119.5C1327,-119.5 1321,-113.5 1321,-107.5"/>
<polyline fill="none" stroke="#59d856" stroke-width="2" points="1321,-107.5 1321,-84.5 "/>
<path fill="none" stroke="#59d856" stroke-width="2" d="M1321,-84.5C1321,-78.5 1327,-72.5 1333,-72.5"/>
<polyline fill="none" stroke="#59d856" stroke-width="2" points="1333,-72.5 1469,-72.5 "/>
<path fill="none" stroke="#59d856" stroke-width="2" d="M1469,-72.5C1475,-72.5 1481,-78.5 1481,-84.5"/>
<polyline fill="none" stroke="#59d856" stroke-width="2" points="1481,-84.5 1481,-107.5 "/>
<path fill="none" stroke="#59d856" stroke-width="2" d="M1481,-107.5C1481,-113.5 1475,-119.5 1469,-119.5"/>
<text text-anchor="middle" x="1401" y="-106.5" font-family="sans" font-size="10.00">read_quality_report</text>
<text text-anchor="middle" x="1401" y="-93.5" font-family="sans" font-size="10.00">experiment: John2014_Sviridis</text>
<text text-anchor="middle" x="1401" y="-80.5" font-family="sans" font-size="10.00">reads: BS_ERR385865</text>
</g>
<!-- 14&#45;&gt;0 -->
<g id="edge12" class="edge"><title>14&#45;&gt;0</title>
<path fill="none" stroke="grey" stroke-width="2" d="M1320.53,-74.0528C1317.65,-73.3474 1314.8,-72.6609 1312,-72 1230.39,-52.7651 1133.77,-34.2736 1082.06,-24.7207"/>
<polygon fill="grey" stroke="grey" points="1082.5,-21.2432 1072.03,-22.8763 1081.23,-28.1277 1082.5,-21.2432"/>
</g>
<!-- 15 -->
<g id="node16" class="node"><title>15</title>
<polyline fill="none" stroke="#59d856" stroke-width="2" points="1647,-119.5 1511,-119.5 "/>
<path fill="none" stroke="#59d856" stroke-width="2" d="M1511,-119.5C1505,-119.5 1499,-113.5 1499,-107.5"/>
<polyline fill="none" stroke="#59d856" stroke-width="2" points="1499,-107.5 1499,-84.5 "/>
<path fill="none" stroke="#59d856" stroke-width="2" d="M1499,-84.5C1499,-78.5 1505,-72.5 1511,-72.5"/>
<polyline fill="none" stroke="#59d856" stroke-width="2" points="1511,-72.5 1647,-72.5 "/>
<path fill="none" stroke="#59d856" stroke-width="2" d="M1647,-72.5C1653,-72.5 1659,-78.5 1659,-84.5"/>
<polyline fill="none" stroke="#59d856" stroke-width="2" points="1659,-84.5 1659,-107.5 "/>
<path fill="none" stroke="#59d856" stroke-width="2" d="M1659,-107.5C1659,-113.5 1653,-119.5 1647,-119.5"/>
<text text-anchor="middle" x="1579" y="-106.5" font-family="sans" font-size="10.00">read_quality_report</text>
<text text-anchor="middle" x="1579" y="-93.5" font-family="sans" font-size="10.00">experiment: John2014_Sviridis</text>
<text text-anchor="middle" x="1579" y="-80.5" font-family="sans" font-size="10.00">reads: BS_ERR385866</text>
</g>
<!-- 15&#45;&gt;0 -->
<g id="edge14" class="edge"><title>15&#45;&gt;0</title>
<path fill="none" stroke="grey" stroke-width="2" d="M1498.59,-73.7651C1495.7,-73.1411 1492.83,-72.5499 1490,-72 1340.25,-42.8769 1158.91,-26.6919 1082.17,-20.7071"/>
<polygon fill="grey" stroke="grey" points="1082.28,-17.206 1072.05,-19.9301 1081.75,-24.1855 1082.28,-17.206"/>
</g>
</g>
</svg>
